<?xml version="1.0" encoding="iso-8859-1"?>
<!-- Generator: Adobe Illustrator 19.0.0, SVG Export Plug-In . SVG Version: 6.00 Build 0)  -->
<svg version="1.1" id="Layer_1" xmlns="http://www.w3.org/2000/svg" xmlns:xlink="http://www.w3.org/1999/xlink" x="0px" y="0px"
	 viewBox="0 0 459.989 459.989" style="enable-background:new 0 0 459.989 459.989;" xml:space="preserve">
<g>
	<path style="fill:#064855;" d="M457.45,196.32c0.054,0.36,0.115,0.73,0.171,1.092C441.577,86.065,345.788,0.499,230,0.499
		c-127.026,0-230,102.974-230,230c0,115.409,85.007,209.947,195.82,226.459L457.45,196.32z"/>
	<path style="fill:#03242B;" d="M99.185,360.315l96.635,96.635c69.662,10.412,143.185-11.186,196.814-64.815
		c53.629-53.629,75.227-127.152,64.815-196.814l-96.635-96.635L99.185,360.315z"/>
	<path style="fill:#4DE1FF;" d="M230,64.499l-52.324-12.497c-25.714,7.568-49.099,20.572-68.827,37.681l-50.2,69.948
		C49.849,181.188,45,204.777,45,229.499c0,40.525,13.03,78.008,35.13,108.485l103.872,70.751C198.709,412.5,214.121,414.5,230,414.5
		l10-185L230,64.499z"/>
	<path style="fill:#2DB8D4;" d="M58.66,159.637c3.603,3.466,8.143,5.964,13.22,7.029h4.424v52.699
		c0,9.555,7.737,17.301,17.292,17.301v30.319c-8.251,7.335-13.455,18.027-13.455,29.934v41.06
		c24.959,34.419,61.475,59.909,103.862,70.755V346.58h4.424C200.745,343.993,210,333.071,210,319.985c0-14.997,0-63.121,0-63.121
		s-67.67,0-89.796,0c-2.252,0-4.459,0.188-6.608,0.544v-20.743c10.216,0,20,0,20,0V210.27h27.822v20h20v-20h0.118v-78.909
		c8.196-3.035,14.041-10.922,14.041-20.177c0-11.868-9.62-21.497-21.498-21.497c0,0-38.043,0-65.23-0.001
		C87.054,108.586,69.735,132.505,58.66,159.637z"/>
	<path style="fill:#2DB8D4;" d="M367.539,105.771c-22.593-25.099-51.957-43.981-85.215-53.769L230,64.499v350
		c20.45,0,40.125-3.318,58.516-9.445l97.45-76.015c8.657-13.536,15.6-28.273,20.523-43.907L367.539,105.771z"/>
	<path style="fill:#FFFFFF;" d="M177.676,52.002C181.319,77.64,203.36,97.357,230,97.357l10-26.429l-10-26.429
		C211.828,44.499,194.265,47.122,177.676,52.002z"/>
	<path style="fill:#C4F5FF;" d="M230,44.499v52.858c26.64,0,48.681-19.718,52.325-45.355C265.736,47.122,248.172,44.499,230,44.499z
		"/>
	<rect x="270" y="140.221" style="fill:#096C80;" width="20" height="25"/>
	<path style="fill:#096C80;" d="M367.542,109.06H330.18v20h18.737v17.063h-22.852c-8.833,1.489-16.065,10.05-16.065,19.015v20.083
		h-40v46.17c0,0,2.449,0,16.875,0c12.196,0,22.434-8.346,25.319-19.643h31.538c5.63,12.617,18.275,21.422,32.982,21.422v17.278
		h-94.332c-17.879,0-32.382,14.489-32.382,32.368v20c0,17.879,14.503,32.382,32.382,32.382h6.131v69.847
		c40.539-13.506,74.841-40.655,97.451-76.008V285.13h20.519c5.53-17.559,8.518-36.246,8.518-55.631
		c0-47.573-17.963-90.946-47.468-123.723L367.542,109.06z"/>
	<path style="fill:#FFFFFF;" d="M198.274,411.766c10.31,1.783,20.906,2.733,31.726,2.733l11.308-12.198L230,386.846
		C214.634,386.846,201.747,397.466,198.274,411.766z"/>
	<path style="fill:#C4F5FF;" d="M261.73,411.779c-3.469-14.307-16.358-24.934-31.73-24.934V414.5
		C240.82,414.5,251.419,413.562,261.73,411.779z"/>
</g>
<g>
</g>
<g>
</g>
<g>
</g>
<g>
</g>
<g>
</g>
<g>
</g>
<g>
</g>
<g>
</g>
<g>
</g>
<g>
</g>
<g>
</g>
<g>
</g>
<g>
</g>
<g>
</g>
<g>
</g>
</svg>
